<svg width="220" height="30" viewBox="0 0 220 30" fill="none" xmlns="http://www.w3.org/2000/svg">
<ellipse cx="10.1277" cy="5" rx="5.07801" ry="5" fill="#D9D9D9"/>
<ellipse cx="10.1277" cy="25" rx="5.07801" ry="5" fill="#D9D9D9"/>
<ellipse cx="5.07801" cy="10" rx="5.07801" ry="5" fill="#D9D9D9"/>
<ellipse cx="10.1277" cy="15" rx="5.07801" ry="5" fill="#D9D9D9"/>
<ellipse cx="5.07801" cy="20" rx="5.07801" ry="5" fill="#D9D9D9"/>
<ellipse cx="21.8723" cy="25" rx="5.07801" ry="5" transform="rotate(180 21.8723 25)" fill="#C3FB50"/>
<ellipse cx="21.8723" cy="5" rx="5.07801" ry="5" transform="rotate(180 21.8723 5)" fill="#C3FB50"/>
<ellipse cx="26.922" cy="20" rx="5.07801" ry="5" transform="rotate(180 26.922 20)" fill="#C3FB50"/>
<ellipse cx="21.8723" cy="15" rx="5.07801" ry="5" transform="rotate(180 21.8723 15)" fill="#C3FB50"/>
<ellipse cx="26.922" cy="10" rx="5.07801" ry="5" transform="rotate(180 26.922 10)" fill="#C3FB50"/>
<path d="M212.757 22.3337C210.744 22.3337 209.098 21.6641 207.82 20.3247C206.551 18.9765 205.916 17.2607 205.916 15.1773C205.916 13.1201 206.546 11.4174 207.807 10.0692C209.067 8.71236 210.674 8.03392 212.626 8.03392C214.569 8.03392 216.141 8.6292 217.34 9.81976C218.548 11.0103 219.152 12.5029 219.152 14.2975V15.7419H207.426V13.8248H216.342C216.289 12.8531 215.931 12.0477 215.265 11.4086C214.6 10.7608 213.72 10.4369 212.626 10.4369C211.453 10.4369 210.499 10.8615 209.763 11.7106C209.037 12.5598 208.673 13.6978 208.673 15.1247C208.673 16.6042 209.08 17.7816 209.895 18.657C210.718 19.5324 211.746 19.9701 212.98 19.9701C213.558 19.9701 214.057 19.8913 214.477 19.7338C214.906 19.5762 215.292 19.3573 215.633 19.0772C215.974 18.7883 216.36 18.3331 216.788 17.7116L218.85 18.9196C218.325 19.8388 217.773 20.526 217.196 20.9812C216.618 21.4277 215.979 21.7647 215.278 21.9923C214.587 22.2199 213.746 22.3337 212.757 22.3337Z" fill="#D9D9D9"/>
<path d="M201.964 22.3337C200.773 22.3337 199.819 21.988 199.101 21.2964C198.384 20.5961 198.025 19.6068 198.025 18.3287V4.73801H200.861V17.8035C200.861 18.5213 201.005 19.051 201.294 19.3924C201.583 19.725 202.008 19.8914 202.568 19.8914C202.726 19.8914 202.892 19.8782 203.067 19.852C203.242 19.8169 203.465 19.7557 203.737 19.6681C204.017 19.5806 204.157 19.5368 204.157 19.5368V21.9529C204.157 21.9529 204.017 21.9923 203.737 22.0711C203.465 22.1587 203.19 22.2243 202.909 22.2681C202.638 22.3119 202.323 22.3337 201.964 22.3337ZM195.792 10.8309V8.45412H204.118V10.8309H195.792Z" fill="#D9D9D9"/>
<path d="M187.931 22.3337C185.918 22.3337 184.272 21.6641 182.994 20.3247C181.724 18.9765 181.09 17.2607 181.09 15.1773C181.09 13.1201 181.72 11.4174 182.981 10.0692C184.241 8.71236 185.848 8.03392 187.8 8.03392C189.743 8.03392 191.315 8.6292 192.514 9.81976C193.722 11.0103 194.326 12.5029 194.326 14.2975V15.7419H182.6V13.8248H191.516C191.463 12.8531 191.104 12.0477 190.439 11.4086C189.774 10.7608 188.894 10.4369 187.8 10.4369C186.627 10.4369 185.673 10.8615 184.937 11.7106C184.211 12.5598 183.847 13.6978 183.847 15.1247C183.847 16.6042 184.254 17.7816 185.069 18.657C185.891 19.5324 186.92 19.9701 188.154 19.9701C188.732 19.9701 189.231 19.8913 189.651 19.7338C190.08 19.5762 190.465 19.3573 190.807 19.0772C191.148 18.7883 191.533 18.3331 191.962 17.7116L194.024 18.9196C193.499 19.8388 192.947 20.526 192.369 20.9812C191.792 21.4277 191.153 21.7647 190.452 21.9923C189.761 22.2199 188.92 22.3337 187.931 22.3337Z" fill="#D9D9D9"/>
<path d="M175.747 21.9135V3.10974H178.584V21.9135H175.747Z" fill="#D9D9D9"/>
<path d="M159.513 27.5468V8.45412H162.218V11.0803L161.575 10.345H162.297C162.708 9.66218 163.325 9.1063 164.148 8.67735C164.98 8.2484 165.89 8.03392 166.88 8.03392C168.692 8.03392 170.206 8.69485 171.423 10.0167C172.64 11.3298 173.248 13.0456 173.248 15.1641C173.248 17.2389 172.64 18.9547 171.423 20.3115C170.215 21.6597 168.692 22.3337 166.853 22.3337C165.89 22.3337 165.006 22.1412 164.201 21.756C163.396 21.362 162.8 20.8368 162.415 20.1802H162.349V27.5468H159.513ZM166.354 19.852C167.519 19.852 168.49 19.4143 169.27 18.5388C170.057 17.6547 170.451 16.5342 170.451 15.1773C170.451 13.7854 170.053 12.6648 169.256 11.8157C168.469 10.9578 167.501 10.5288 166.354 10.5288C165.208 10.5288 164.236 10.9578 163.439 11.8157C162.643 12.6736 162.244 13.7941 162.244 15.1773C162.244 16.5342 162.638 17.6547 163.426 18.5388C164.223 19.4143 165.199 19.852 166.354 19.852Z" fill="#D9D9D9"/>
<path d="M135.867 21.9135V8.45412H138.585V10.7652L138.309 10.4369H138.664C139.049 9.73659 139.631 9.1632 140.41 8.71674C141.198 8.26153 142.03 8.03392 142.905 8.03392C143.868 8.03392 144.717 8.2659 145.452 8.72987C146.188 9.18508 146.717 9.811 147.041 10.6076C147.549 9.76723 148.201 9.12818 148.998 8.69048C149.795 8.25277 150.679 8.03392 151.65 8.03392C153.191 8.03392 154.364 8.49351 155.17 9.41269C155.975 10.3319 156.378 11.6187 156.378 13.2732V21.9135H153.568V13.7722C153.568 12.6692 153.34 11.8507 152.885 11.3167C152.429 10.774 151.729 10.5026 150.784 10.5026C149.873 10.5026 149.103 10.8746 148.473 11.6187C147.851 12.3541 147.54 13.2645 147.54 14.35V21.9135H144.704V13.7985C144.704 12.6955 144.476 11.8726 144.021 11.3298C143.566 10.7783 142.874 10.5026 141.946 10.5026C141.027 10.5026 140.257 10.879 139.635 11.6319C139.014 12.3847 138.703 13.3039 138.703 14.3894V21.9135H135.867Z" fill="#D9D9D9"/>
<path d="M126.32 22.3337C124.28 22.3337 122.591 21.6553 121.251 20.2984C119.921 18.9328 119.255 17.2257 119.255 15.1773C119.255 13.1025 119.921 11.3955 121.251 10.0561C122.591 8.70799 124.28 8.03392 126.32 8.03392C128.342 8.03392 130.023 8.71236 131.362 10.0692C132.71 11.4174 133.385 13.1201 133.385 15.1773C133.385 17.2257 132.715 18.9328 131.375 20.2984C130.045 21.6553 128.36 22.3337 126.32 22.3337ZM126.32 19.8388C127.519 19.8388 128.526 19.4055 129.34 18.5388C130.163 17.6634 130.574 16.5429 130.574 15.1773C130.574 13.7941 130.163 12.6736 129.34 11.8157C128.517 10.9578 127.511 10.5288 126.32 10.5288C125.112 10.5288 124.096 10.9622 123.274 11.8288C122.459 12.6867 122.052 13.8029 122.052 15.1773C122.052 16.5429 122.459 17.6634 123.274 18.5388C124.088 19.4055 125.103 19.8388 126.32 19.8388Z" fill="#D9D9D9"/>
<path d="M111.685 22.3337C109.68 22.3337 108.026 21.6597 106.722 20.3115C105.417 18.9634 104.765 17.2432 104.765 15.151C104.765 13.05 105.422 11.3386 106.735 10.0167C108.048 8.69485 109.702 8.03392 111.698 8.03392C112.565 8.03392 113.362 8.16086 114.088 8.41472C114.823 8.65984 115.493 9.05377 116.097 9.59653C116.701 10.1305 117.231 10.9009 117.686 11.9076L115.257 12.8924C114.933 12.2622 114.605 11.7851 114.272 11.4612C113.948 11.1372 113.563 10.9009 113.116 10.7521C112.679 10.6032 112.197 10.5288 111.672 10.5288C110.534 10.5288 109.562 10.9534 108.757 11.8026C107.951 12.643 107.549 13.7547 107.549 15.1379C107.549 16.521 107.947 17.6547 108.744 18.5388C109.549 19.4143 110.525 19.852 111.672 19.852C112.197 19.852 112.683 19.7688 113.13 19.6025C113.585 19.4361 113.974 19.2085 114.298 18.9196C114.622 18.622 114.977 18.1274 115.362 17.4358L117.778 18.4207C117.27 19.4624 116.727 20.2415 116.15 20.758C115.572 21.2745 114.907 21.6641 114.154 21.9267C113.41 22.1981 112.587 22.3337 111.685 22.3337Z" fill="#D9D9D9"/>
<path d="M94.9249 22.3337C93.0952 22.3337 91.5764 21.6684 90.3683 20.3378C89.1603 19.0072 88.5562 17.2958 88.5562 15.2035C88.5562 13.1025 89.169 11.3867 90.3946 10.0561C91.6202 8.7255 93.1565 8.06018 95.0036 8.06018C95.9403 8.06018 96.8026 8.27028 97.5905 8.69048C98.3871 9.11068 98.9868 9.65781 99.3894 10.3319H99.4551V3.10974H102.278V21.9135H99.5601V19.5368L99.8622 20.0095L99.4945 20.0358C99.0743 20.7274 98.4528 21.2833 97.6299 21.7034C96.807 22.1236 95.9053 22.3337 94.9249 22.3337ZM95.4501 19.8651C96.6056 19.8651 97.5773 19.4274 98.3652 18.552C99.1531 17.6678 99.547 16.5429 99.547 15.1773C99.547 13.8116 99.1487 12.6999 98.3521 11.842C97.5555 10.9753 96.5881 10.542 95.4501 10.542C94.3033 10.542 93.3316 10.9709 92.535 11.8288C91.7384 12.6867 91.34 13.8073 91.34 15.1904C91.34 16.556 91.734 17.6766 92.5219 18.552C93.3097 19.4274 94.2858 19.8651 95.4501 19.8651Z" fill="#D9D9D9"/>
<path d="M74.0837 21.9135V8.45412H76.8018V10.8702L76.4341 10.4369H76.8806C77.2833 9.72784 77.8917 9.15007 78.7058 8.70361C79.52 8.25715 80.3735 8.03392 81.2664 8.03392C82.8159 8.03392 84.0239 8.49351 84.8906 9.41269C85.7573 10.3319 86.1906 11.5968 86.1906 13.2076V21.9135H83.3543V13.746C83.3543 12.6867 83.096 11.8813 82.5795 11.3298C82.0718 10.7783 81.3146 10.5026 80.3078 10.5026C79.3536 10.5026 78.5483 10.879 77.8917 11.6319C77.2439 12.376 76.92 13.2776 76.92 14.3369V21.9135H74.0837Z" fill="#D9D9D9"/>
<path d="M67.817 21.9135V8.45412H70.6665V21.9135H67.817ZM69.2483 5.97233C68.7581 5.97233 68.3379 5.80163 67.9877 5.46022C67.6463 5.11006 67.4756 4.68986 67.4756 4.19963C67.4756 3.70065 67.6463 3.28483 67.9877 2.95217C68.3379 2.61951 68.7581 2.45319 69.2483 2.45319C69.7473 2.45319 70.1631 2.61951 70.4958 2.95217C70.8284 3.28483 70.9948 3.70065 70.9948 4.19963C70.9948 4.68986 70.8284 5.11006 70.4958 5.46022C70.1631 5.80163 69.7473 5.97233 69.2483 5.97233Z" fill="#D9D9D9"/>
<path d="M44 21.9135V8.45412H46.7181V10.7652L46.4424 10.4369H46.7969C47.1821 9.73659 47.7643 9.1632 48.5434 8.71674C49.3312 8.26153 50.1629 8.03392 51.0383 8.03392C52.0012 8.03392 52.8504 8.2659 53.5857 8.72987C54.3211 9.18508 54.8507 9.811 55.1746 10.6076C55.6823 9.76723 56.3345 9.12818 57.1311 8.69048C57.9278 8.25277 58.8119 8.03392 59.7836 8.03392C61.3244 8.03392 62.4974 8.49351 63.3028 9.41269C64.1082 10.3319 64.5109 11.6187 64.5109 13.2732V21.9135H61.7008V13.7722C61.7008 12.6692 61.4732 11.8507 61.018 11.3167C60.5628 10.774 59.8624 10.5026 58.917 10.5026C58.0066 10.5026 57.2362 10.8746 56.6059 11.6187C55.9844 12.3541 55.6736 13.2645 55.6736 14.35V21.9135H52.8373V13.7985C52.8373 12.6955 52.6097 11.8726 52.1544 11.3298C51.6992 10.7783 51.0077 10.5026 50.0797 10.5026C49.1605 10.5026 48.3902 10.879 47.7686 11.6319C47.1471 12.3847 46.8363 13.3039 46.8363 14.3894V21.9135H44Z" fill="#D9D9D9"/>
</svg>
