<svg width="178" height="29" viewBox="0 0 178 29" fill="none" xmlns="http://www.w3.org/2000/svg">
<path d="M47.6277 22.915C46.4317 22.915 45.3484 22.6117 44.3777 22.005C43.4244 21.3984 42.6704 20.5664 42.1157 19.509C41.5611 18.4517 41.2837 17.2384 41.2837 15.869C41.2837 14.4997 41.5611 13.2864 42.1157 12.229C42.6704 11.1717 43.4244 10.3397 44.3777 9.73305C45.3484 9.12638 46.4317 8.82305 47.6277 8.82305C48.3384 8.82305 48.9884 8.93571 49.5777 9.16105C50.1671 9.38638 50.6784 9.68105 51.1117 10.045C51.5624 10.409 51.9091 10.799 52.1517 11.215H52.2557L52.1517 9.36905V3.88305H54.3617V22.499H52.2557V20.549H52.1517C51.9091 20.9477 51.5624 21.329 51.1117 21.693C50.6784 22.057 50.1671 22.3517 49.5777 22.577C48.9884 22.8024 48.3384 22.915 47.6277 22.915ZM47.8617 20.913C48.6244 20.913 49.3351 20.7137 49.9937 20.315C50.6697 19.899 51.2157 19.3184 51.6317 18.573C52.0477 17.8104 52.2557 16.909 52.2557 15.869C52.2557 14.829 52.0477 13.9364 51.6317 13.191C51.2157 12.4284 50.6697 11.8477 49.9937 11.449C49.3351 11.033 48.6244 10.825 47.8617 10.825C47.0991 10.825 46.3797 11.033 45.7037 11.449C45.0451 11.8477 44.5077 12.4284 44.0917 13.191C43.6757 13.9364 43.4677 14.829 43.4677 15.869C43.4677 16.8917 43.6757 17.7844 44.0917 18.547C44.5077 19.3097 45.0451 19.899 45.7037 20.315C46.3797 20.7137 47.0991 20.913 47.8617 20.913Z" fill="#D9D9D9"/>
<path d="M27.4623 22.499V9.23905H29.5683V11.189H29.6723C30.019 10.5477 30.5823 9.99305 31.3623 9.52505C32.1596 9.05705 33.0263 8.82305 33.9623 8.82305C35.5916 8.82305 36.8136 9.29971 37.6283 10.253C38.4603 11.189 38.8763 12.437 38.8763 13.997V22.499H36.6663V14.335C36.6663 13.0524 36.3543 12.151 35.7303 11.631C35.1236 11.0937 34.335 10.825 33.3643 10.825C32.6363 10.825 31.995 11.033 31.4403 11.449C30.8856 11.8477 30.4523 12.3677 30.1403 13.009C29.8283 13.6504 29.6723 14.3264 29.6723 15.037V22.499H27.4623Z" fill="#D9D9D9"/>
<path d="M22.0287 22.499V9.23905H24.2387V22.499H22.0287ZM23.1207 6.79505C22.6874 6.79505 22.3147 6.63905 22.0027 6.32705C21.6907 6.01505 21.5347 5.64238 21.5347 5.20905C21.5347 4.75838 21.6907 4.38571 22.0027 4.09105C22.3147 3.77905 22.6874 3.62305 23.1207 3.62305C23.5714 3.62305 23.944 3.77905 24.2387 4.09105C24.5507 4.38571 24.7067 4.75838 24.7067 5.20905C24.7067 5.64238 24.5507 6.01505 24.2387 6.32705C23.944 6.63905 23.5714 6.79505 23.1207 6.79505Z" fill="#D9D9D9"/>
<path d="M0 22.499V3.88305H3.198L9.126 19.145H9.23L15.158 3.88305H18.356V22.499H16.172V10.669L16.276 7.13305H16.172L10.088 22.499H8.268L2.184 7.13305H2.08L2.184 10.669V22.499H0Z" fill="#D9D9D9"/>
<path d="M171.707 22.9168C170.424 22.9168 169.28 22.6134 168.275 22.0068C167.287 21.4001 166.507 20.5681 165.935 19.5108C165.38 18.4534 165.103 17.2488 165.103 15.8968C165.103 14.6314 165.363 13.4614 165.883 12.3868C166.42 11.3121 167.165 10.4541 168.119 9.81277C169.089 9.1541 170.225 8.82477 171.525 8.82477C172.842 8.82477 173.969 9.11943 174.905 9.70877C175.858 10.2808 176.586 11.0781 177.089 12.1008C177.609 13.1234 177.869 14.2934 177.869 15.6108C177.869 15.7321 177.86 15.8534 177.843 15.9748C177.843 16.0961 177.834 16.2001 177.817 16.2868H166.403V14.4668H175.529C175.511 14.1028 175.425 13.7128 175.269 13.2968C175.13 12.8634 174.896 12.4648 174.567 12.1008C174.255 11.7194 173.847 11.4161 173.345 11.1908C172.859 10.9481 172.253 10.8268 171.525 10.8268C170.658 10.8268 169.904 11.0521 169.263 11.5028C168.639 11.9361 168.153 12.5341 167.807 13.2968C167.477 14.0594 167.313 14.9261 167.313 15.8968C167.313 17.0234 167.529 17.9594 167.963 18.7048C168.396 19.4501 168.951 20.0048 169.627 20.3688C170.32 20.7328 171.039 20.9148 171.785 20.9148C172.755 20.9148 173.553 20.6894 174.177 20.2388C174.818 19.7708 175.329 19.1988 175.711 18.5228L177.583 19.4328C177.063 20.4381 176.317 21.2701 175.347 21.9288C174.376 22.5874 173.163 22.9168 171.707 22.9168Z" fill="#C3FB50"/>
<path d="M155.372 11.2428V9.24077H157.842V11.2428H155.372ZM161.404 22.7088C160.294 22.7088 159.402 22.3794 158.726 21.7208C158.05 21.0448 157.712 20.1434 157.712 19.0168V5.49677H159.922V18.4708C159.922 19.2161 160.069 19.7708 160.364 20.1348C160.676 20.4814 161.135 20.6548 161.742 20.6548C162.019 20.6548 162.279 20.6201 162.522 20.5508C162.764 20.4641 162.998 20.3514 163.224 20.2128V22.3708C162.946 22.4748 162.66 22.5528 162.366 22.6048C162.071 22.6741 161.75 22.7088 161.404 22.7088ZM159.792 11.2428V9.24077H163.172V11.2428H159.792Z" fill="#C3FB50"/>
<path d="M147.662 22.9168C146.379 22.9168 145.235 22.6134 144.23 22.0068C143.242 21.4001 142.462 20.5681 141.89 19.5108C141.335 18.4534 141.058 17.2488 141.058 15.8968C141.058 14.6314 141.318 13.4614 141.838 12.3868C142.375 11.3121 143.12 10.4541 144.074 9.81277C145.044 9.1541 146.18 8.82477 147.48 8.82477C148.797 8.82477 149.924 9.11943 150.86 9.70877C151.813 10.2808 152.541 11.0781 153.044 12.1008C153.564 13.1234 153.824 14.2934 153.824 15.6108C153.824 15.7321 153.815 15.8534 153.798 15.9748C153.798 16.0961 153.789 16.2001 153.772 16.2868H142.358V14.4668H151.484C151.466 14.1028 151.38 13.7128 151.224 13.2968C151.085 12.8634 150.851 12.4648 150.522 12.1008C150.21 11.7194 149.802 11.4161 149.3 11.1908C148.814 10.9481 148.208 10.8268 147.48 10.8268C146.613 10.8268 145.859 11.0521 145.218 11.5028C144.594 11.9361 144.108 12.5341 143.762 13.2968C143.432 14.0594 143.268 14.9261 143.268 15.8968C143.268 17.0234 143.484 17.9594 143.918 18.7048C144.351 19.4501 144.906 20.0048 145.582 20.3688C146.275 20.7328 146.994 20.9148 147.74 20.9148C148.71 20.9148 149.508 20.6894 150.132 20.2388C150.773 19.7708 151.284 19.1988 151.666 18.5228L153.538 19.4328C153.018 20.4381 152.272 21.2701 151.302 21.9288C150.331 22.5874 149.118 22.9168 147.662 22.9168Z" fill="#C3FB50"/>
<path d="M136.326 22.5008V3.88477H138.536V22.5008H136.326Z" fill="#C3FB50"/>
<path d="M120.736 28.1168V9.24077H122.842V11.2168H122.946C123.189 10.8008 123.527 10.4108 123.96 10.0468C124.411 9.68277 124.931 9.3881 125.52 9.16277C126.11 8.93743 126.76 8.82477 127.47 8.82477C128.684 8.82477 129.767 9.1281 130.72 9.73477C131.674 10.3414 132.428 11.1734 132.982 12.2308C133.537 13.2881 133.814 14.5014 133.814 15.8708C133.814 17.2401 133.537 18.4534 132.982 19.5108C132.428 20.5681 131.674 21.4001 130.72 22.0068C129.767 22.6134 128.684 22.9168 127.47 22.9168C126.413 22.9168 125.486 22.6741 124.688 22.1888C123.891 21.7034 123.31 21.1574 122.946 20.5508H122.842L122.946 22.3708V28.1168H120.736ZM127.236 20.9148C127.999 20.9148 128.71 20.7154 129.368 20.3168C130.044 19.9008 130.582 19.3114 130.98 18.5488C131.396 17.7861 131.604 16.8934 131.604 15.8708C131.604 14.8308 131.396 13.9381 130.98 13.1928C130.582 12.4301 130.044 11.8494 129.368 11.4508C128.71 11.0348 127.999 10.8268 127.236 10.8268C126.474 10.8268 125.754 11.0348 125.078 11.4508C124.42 11.8494 123.882 12.4301 123.466 13.1928C123.05 13.9381 122.842 14.8308 122.842 15.8708C122.842 16.9108 123.05 17.8121 123.466 18.5748C123.882 19.3201 124.42 19.9008 125.078 20.3168C125.754 20.7154 126.474 20.9148 127.236 20.9148Z" fill="#C3FB50"/>
<path d="M98.037 22.5008V9.24077H100.143V11.1908H100.247C100.49 10.7574 100.819 10.3674 101.235 10.0208C101.668 9.65677 102.154 9.37077 102.691 9.16277C103.246 8.93743 103.809 8.82477 104.381 8.82477C105.369 8.82477 106.218 9.06743 106.929 9.55277C107.64 10.0208 108.151 10.6361 108.463 11.3988C108.914 10.6534 109.52 10.0381 110.283 9.55277C111.046 9.06743 111.956 8.82477 113.013 8.82477C114.59 8.82477 115.752 9.30143 116.497 10.2548C117.242 11.2081 117.615 12.4561 117.615 13.9988V22.5008H115.431V14.3368C115.431 13.0541 115.171 12.1528 114.651 11.6328C114.131 11.0954 113.394 10.8268 112.441 10.8268C111.765 10.8268 111.158 11.0261 110.621 11.4248C110.101 11.8061 109.685 12.3174 109.373 12.9588C109.078 13.5828 108.931 14.2674 108.931 15.0128V22.5008H106.721V14.3628C106.721 13.0801 106.461 12.1701 105.941 11.6328C105.421 11.0954 104.693 10.8268 103.757 10.8268C103.081 10.8268 102.474 11.0261 101.937 11.4248C101.417 11.8234 101.001 12.3434 100.689 12.9848C100.394 13.6261 100.247 14.3194 100.247 15.0648V22.5008H98.037Z" fill="#C3FB50"/>
<path d="M88.7095 22.9168C87.3748 22.9168 86.1961 22.6048 85.1735 21.9808C84.1508 21.3568 83.3448 20.5161 82.7555 19.4588C82.1835 18.3841 81.8975 17.1881 81.8975 15.8708C81.8975 14.5534 82.1835 13.3661 82.7555 12.3088C83.3448 11.2341 84.1508 10.3848 85.1735 9.76077C86.1961 9.13677 87.3748 8.82477 88.7095 8.82477C90.0441 8.82477 91.2228 9.14543 92.2455 9.78677C93.2681 10.4108 94.0655 11.2601 94.6375 12.3348C95.2268 13.3921 95.5215 14.5708 95.5215 15.8708C95.5215 17.1881 95.2268 18.3841 94.6375 19.4588C94.0655 20.5161 93.2681 21.3568 92.2455 21.9808C91.2228 22.6048 90.0441 22.9168 88.7095 22.9168ZM88.7095 20.9148C89.5068 20.9148 90.2521 20.7154 90.9455 20.3168C91.6561 19.9181 92.2281 19.3461 92.6615 18.6008C93.0948 17.8381 93.3115 16.9281 93.3115 15.8708C93.3115 14.8134 93.0948 13.9121 92.6615 13.1668C92.2281 12.4041 91.6561 11.8234 90.9455 11.4248C90.2521 11.0261 89.5068 10.8268 88.7095 10.8268C87.9121 10.8268 87.1581 11.0261 86.4475 11.4248C85.7368 11.8234 85.1648 12.4041 84.7315 13.1668C84.2981 13.9121 84.0815 14.8134 84.0815 15.8708C84.0815 16.9281 84.2981 17.8381 84.7315 18.6008C85.1648 19.3461 85.7368 19.9181 86.4475 20.3168C87.1581 20.7154 87.9121 20.9148 88.7095 20.9148Z" fill="#C3FB50"/>
<path d="M74.5644 22.9168C73.2644 22.9168 72.1031 22.6134 71.0804 22.0068C70.0751 21.3828 69.2864 20.5421 68.7144 19.4848C68.1424 18.4101 67.8564 17.2054 67.8564 15.8708C67.8564 14.5188 68.1424 13.3141 68.7144 12.2568C69.2864 11.1994 70.0751 10.3674 71.0804 9.76077C72.1031 9.13677 73.2644 8.82477 74.5644 8.82477C76.0551 8.82477 77.2771 9.17143 78.2304 9.86477C79.2011 10.5408 79.8858 11.4161 80.2844 12.4908L78.2824 13.3228C77.9531 12.5081 77.4591 11.8928 76.8004 11.4768C76.1591 11.0434 75.3791 10.8268 74.4604 10.8268C73.6804 10.8268 72.9524 11.0348 72.2764 11.4508C71.6178 11.8668 71.0804 12.4561 70.6644 13.2188C70.2484 13.9641 70.0404 14.8481 70.0404 15.8708C70.0404 16.8761 70.2484 17.7601 70.6644 18.5228C71.0804 19.2854 71.6178 19.8748 72.2764 20.2908C72.9524 20.7068 73.6804 20.9148 74.4604 20.9148C75.3964 20.9148 76.2024 20.6981 76.8784 20.2648C77.5544 19.8314 78.0571 19.2161 78.3864 18.4188L80.3624 19.2508C79.9291 20.2734 79.2271 21.1401 78.2564 21.8508C77.2858 22.5614 76.0551 22.9168 74.5644 22.9168Z" fill="#C3FB50"/>
<path d="M61.9463 0V28" stroke="#C3FB50"/>
</svg>
