<svg width="118" height="27" viewBox="0 0 118 27" fill="none" xmlns="http://www.w3.org/2000/svg">
<path d="M108.273 26.46C107.769 26.46 107.368 26.2827 107.069 25.928C106.77 25.592 106.621 25.2 106.621 24.752C106.621 24.3973 106.724 24.0987 106.929 23.856C107.134 23.6133 107.414 23.492 107.769 23.492C108.068 23.492 108.282 23.5573 108.413 23.688C108.544 23.8187 108.637 23.968 108.693 24.136C108.749 24.304 108.805 24.4533 108.861 24.584C108.917 24.7147 109.029 24.78 109.197 24.78C109.402 24.78 109.589 24.6307 109.757 24.332C109.925 24.052 110.158 23.4453 110.457 22.512C110.644 21.952 110.756 21.4667 110.793 21.056C110.849 20.6453 110.84 20.2067 110.765 19.74C110.709 19.2733 110.569 18.704 110.345 18.032L107.293 8.316C107.162 7.868 107.032 7.57867 106.901 7.448C106.789 7.31733 106.602 7.224 106.341 7.168L105.921 7.084C105.678 7.028 105.557 6.90667 105.557 6.72C105.557 6.53333 105.688 6.44 105.949 6.44H110.569C110.83 6.44 110.961 6.53333 110.961 6.72C110.961 6.92533 110.84 7.04667 110.597 7.084L110.149 7.14C109.701 7.196 109.412 7.308 109.281 7.476C109.169 7.62533 109.178 7.90533 109.309 8.316L111.773 16.52C111.829 16.7067 111.913 16.8 112.025 16.8C112.156 16.8 112.249 16.7067 112.305 16.52L114.685 8.82C114.834 8.316 114.872 7.94267 114.797 7.7C114.741 7.43867 114.48 7.27067 114.013 7.196L113.425 7.084C113.182 7.028 113.061 6.90667 113.061 6.72C113.061 6.53333 113.192 6.44 113.453 6.44H117.009C117.27 6.44 117.401 6.54267 117.401 6.748C117.401 6.93467 117.289 7.06533 117.065 7.14L116.813 7.224C116.533 7.31733 116.3 7.48533 116.113 7.728C115.926 7.97067 115.73 8.39067 115.525 8.988L111.353 22.008C110.942 23.3147 110.569 24.2853 110.233 24.92C109.916 25.5547 109.608 25.9653 109.309 26.152C109.01 26.3573 108.665 26.46 108.273 26.46Z" fill="#4A0325"/>
<path d="M99.8268 20.972C98.8374 20.972 98.0441 20.5893 97.4468 19.824C96.8495 19.04 96.5508 17.9387 96.5508 16.52C96.5508 15.288 96.7655 14.0653 97.1948 12.852C97.6428 11.6387 98.2215 10.5373 98.9308 9.548C99.6401 8.55867 100.415 7.76533 101.255 7.168C102.113 6.57066 102.944 6.272 103.747 6.272C104.624 6.272 105.249 6.48667 105.623 6.916C106.015 7.32667 106.211 7.88667 106.211 8.596C106.211 9.436 105.912 10.276 105.315 11.116C104.736 11.9373 103.915 12.6747 102.851 13.328C101.805 13.9813 100.573 14.4667 99.1548 14.784C98.7441 14.8773 98.5294 15.1107 98.5108 15.484C98.4921 15.6147 98.4828 15.7547 98.4828 15.904C98.4828 16.0347 98.4828 16.1653 98.4828 16.296C98.4828 17.36 98.6601 18.1627 99.0148 18.704C99.3881 19.2453 99.8921 19.516 100.527 19.516C101.236 19.516 101.917 19.1893 102.571 18.536C103.243 17.8827 103.803 16.9587 104.251 15.764C104.307 15.596 104.419 15.512 104.587 15.512C104.699 15.512 104.764 15.5587 104.783 15.652C104.82 15.7453 104.82 15.8573 104.783 15.988C104.185 17.6307 103.457 18.872 102.599 19.712C101.759 20.552 100.835 20.972 99.8268 20.972ZM98.7908 13.72C98.7535 13.8507 98.7721 13.9627 98.8468 14.056C98.9401 14.1307 99.0521 14.1493 99.1828 14.112C100.34 13.7947 101.311 13.3187 102.095 12.684C102.879 12.0307 103.467 11.3027 103.859 10.5C104.269 9.69733 104.475 8.91333 104.475 8.148C104.475 7.364 104.167 6.972 103.551 6.972C103.009 6.972 102.421 7.28933 101.787 7.924C101.152 8.55867 100.564 9.38933 100.023 10.416C99.4814 11.4427 99.0708 12.544 98.7908 13.72Z" fill="#4A0325"/>
<path d="M90.6224 20.72C90.3984 20.72 90.2864 20.6173 90.2864 20.412C90.2864 20.2253 90.3891 20.1133 90.5944 20.076L90.9864 20.02C91.3784 19.964 91.6678 19.852 91.8544 19.684C92.0411 19.516 92.1344 19.236 92.1344 18.844V2.8C92.1344 2.464 92.0784 2.23067 91.9664 2.1C91.8731 1.96933 91.6958 1.89467 91.4344 1.876L90.7904 1.792C90.5851 1.75467 90.4824 1.64267 90.4824 1.456C90.4824 1.26933 90.5851 1.15733 90.7904 1.12C91.3131 1.008 91.7611 0.877332 92.1344 0.727999C92.5078 0.578665 92.8158 0.429332 93.0584 0.28C93.3571 0.0933332 93.5811 0 93.7304 0C93.9358 0 94.0384 0.149333 94.0384 0.447999V18.844C94.0384 19.236 94.0944 19.516 94.2064 19.684C94.3371 19.8333 94.5984 19.936 94.9904 19.992L95.6344 20.076C95.8398 20.1133 95.9424 20.2253 95.9424 20.412C95.9424 20.6173 95.8304 20.72 95.6064 20.72H90.6224Z" fill="#4A0325"/>
<path d="M84.4701 20.72C84.2461 20.72 84.1341 20.6173 84.1341 20.412C84.1341 20.2253 84.2368 20.1133 84.4421 20.076L84.8341 20.02C85.2261 19.964 85.5154 19.852 85.7021 19.684C85.8888 19.516 85.9821 19.236 85.9821 18.844V2.8C85.9821 2.464 85.9261 2.23067 85.8141 2.1C85.7208 1.96933 85.5434 1.89467 85.2821 1.876L84.6381 1.792C84.4328 1.75467 84.3301 1.64267 84.3301 1.456C84.3301 1.26933 84.4328 1.15733 84.6381 1.12C85.1608 1.008 85.6088 0.877332 85.9821 0.727999C86.3554 0.578665 86.6634 0.429332 86.9061 0.28C87.2048 0.0933332 87.4288 0 87.5781 0C87.7834 0 87.8861 0.149333 87.8861 0.447999V18.844C87.8861 19.236 87.9421 19.516 88.0541 19.684C88.1848 19.8333 88.4461 19.936 88.8381 19.992L89.4821 20.076C89.6874 20.1133 89.7901 20.2253 89.7901 20.412C89.7901 20.6173 89.6781 20.72 89.4541 20.72H84.4701Z" fill="#4A0325"/>
<path d="M76.0865 20.972C75.3025 20.972 74.6585 20.7293 74.1545 20.244C73.6505 19.74 73.3985 19.0773 73.3985 18.256C73.3985 17.4533 73.6505 16.6973 74.1545 15.988C74.6585 15.26 75.3492 14.6067 76.2265 14.028C77.1038 13.4493 78.1025 12.9827 79.2225 12.628C79.4652 12.5533 79.5865 12.3947 79.5865 12.152V9.604C79.5865 8.708 79.4465 8.07333 79.1665 7.7C78.8865 7.308 78.5038 7.112 78.0185 7.112C77.5518 7.112 77.1225 7.32667 76.7305 7.756C76.3572 8.16667 76.0865 8.86667 75.9185 9.856C75.8252 10.4533 75.6198 10.892 75.3025 11.172C75.0038 11.4333 74.6958 11.564 74.3785 11.564C73.8558 11.564 73.5945 11.3027 73.5945 10.78C73.5945 10.2387 73.7438 9.70667 74.0425 9.184C74.3598 8.64267 74.7705 8.15733 75.2745 7.728C75.7785 7.28 76.3292 6.92533 76.9265 6.664C77.5238 6.40267 78.1212 6.272 78.7185 6.272C80.5665 6.272 81.4905 7.34533 81.4905 9.492V18.06C81.4905 18.844 81.6865 19.236 82.0785 19.236C82.3212 19.236 82.5452 19.0773 82.7505 18.76C82.9558 18.424 83.0585 17.864 83.0585 17.08C83.0585 16.7813 83.1798 16.632 83.4225 16.632C83.6465 16.632 83.7585 16.7907 83.7585 17.108C83.7585 18.4707 83.5158 19.46 83.0305 20.076C82.5638 20.6733 82.0318 20.972 81.4345 20.972C80.9865 20.972 80.6318 20.7947 80.3705 20.44C80.1092 20.0667 79.9318 19.628 79.8385 19.124C79.8198 18.9373 79.7358 18.844 79.5865 18.844C79.4558 18.8253 79.3252 18.9093 79.1945 19.096C78.7465 19.712 78.2892 20.1787 77.8225 20.496C77.3558 20.8133 76.7772 20.972 76.0865 20.972ZM76.8425 19.684C77.3278 19.684 77.7758 19.516 78.1865 19.18C78.5972 18.8253 78.9332 18.3587 79.1945 17.78C79.4558 17.2013 79.5865 16.548 79.5865 15.82V13.776C79.5865 13.4213 79.3905 13.3187 78.9985 13.468C77.8598 13.8787 76.9732 14.448 76.3385 15.176C75.7225 15.8853 75.4145 16.744 75.4145 17.752C75.4145 19.04 75.8905 19.684 76.8425 19.684Z" fill="#4A0325"/>
<path d="M67.4944 20.972C67.3264 20.972 67.2051 20.8693 67.1304 20.664L63.4064 8.316C63.2758 7.868 63.1451 7.57867 63.0144 7.448C62.9024 7.31733 62.7158 7.224 62.4544 7.168L62.0344 7.084C61.7918 7.028 61.6704 6.90667 61.6704 6.72C61.6704 6.53333 61.8011 6.44 62.0624 6.44H66.6824C66.9438 6.44 67.0744 6.53333 67.0744 6.72C67.0744 6.92533 66.9531 7.04667 66.7104 7.084L66.2624 7.14C65.8144 7.196 65.5344 7.308 65.4224 7.476C65.3104 7.62533 65.3104 7.90533 65.4224 8.316L67.7464 16.408C67.8024 16.6133 67.8958 16.716 68.0264 16.716C68.1571 16.716 68.2504 16.6133 68.3064 16.408L70.5744 8.82C70.7238 8.316 70.7611 7.94267 70.6864 7.7C70.6304 7.43867 70.3691 7.27067 69.9024 7.196L69.3144 7.084C69.0718 7.028 68.9504 6.90667 68.9504 6.72C68.9504 6.53333 69.0811 6.44 69.3424 6.44H72.8984C73.1598 6.44 73.2904 6.54267 73.2904 6.748C73.2904 6.93467 73.1784 7.06533 72.9544 7.14L72.7024 7.224C72.4224 7.31733 72.1798 7.48533 71.9744 7.728C71.7878 7.97067 71.6011 8.39067 71.4144 8.988L67.8584 20.664C67.7838 20.8693 67.6624 20.972 67.4944 20.972Z" fill="#4A0325"/>
<path d="M55.9401 20.972C54.9507 20.972 54.1574 20.5893 53.5601 19.824C52.9627 19.04 52.6641 17.9387 52.6641 16.52C52.6641 15.288 52.8787 14.0653 53.3081 12.852C53.7561 11.6387 54.3347 10.5373 55.0441 9.548C55.7534 8.55867 56.5281 7.76533 57.3681 7.168C58.2267 6.57066 59.0574 6.272 59.8601 6.272C60.7374 6.272 61.3627 6.48667 61.7361 6.916C62.1281 7.32667 62.3241 7.88667 62.3241 8.596C62.3241 9.436 62.0254 10.276 61.4281 11.116C60.8494 11.9373 60.0281 12.6747 58.9641 13.328C57.9187 13.9813 56.6867 14.4667 55.2681 14.784C54.8574 14.8773 54.6427 15.1107 54.6241 15.484C54.6054 15.6147 54.5961 15.7547 54.5961 15.904C54.5961 16.0347 54.5961 16.1653 54.5961 16.296C54.5961 17.36 54.7734 18.1627 55.1281 18.704C55.5014 19.2453 56.0054 19.516 56.6401 19.516C57.3494 19.516 58.0307 19.1893 58.6841 18.536C59.3561 17.8827 59.9161 16.9587 60.3641 15.764C60.4201 15.596 60.5321 15.512 60.7001 15.512C60.8121 15.512 60.8774 15.5587 60.8961 15.652C60.9334 15.7453 60.9334 15.8573 60.8961 15.988C60.2987 17.6307 59.5707 18.872 58.7121 19.712C57.8721 20.552 56.9481 20.972 55.9401 20.972ZM54.9041 13.72C54.8667 13.8507 54.8854 13.9627 54.9601 14.056C55.0534 14.1307 55.1654 14.1493 55.2961 14.112C56.4534 13.7947 57.4241 13.3187 58.2081 12.684C58.9921 12.0307 59.5801 11.3027 59.9721 10.5C60.3827 9.69733 60.5881 8.91333 60.5881 8.148C60.5881 7.364 60.2801 6.972 59.6641 6.972C59.1227 6.972 58.5347 7.28933 57.9001 7.924C57.2654 8.55867 56.6774 9.38933 56.1361 10.416C55.5947 11.4427 55.1841 12.544 54.9041 13.72Z" fill="#4A0325"/>
<path d="M46.7357 20.72C46.5117 20.72 46.3997 20.6173 46.3997 20.412C46.3997 20.2253 46.5024 20.1133 46.7077 20.076L47.0997 20.02C47.4917 19.964 47.7811 19.852 47.9677 19.684C48.1544 19.516 48.2477 19.236 48.2477 18.844V2.8C48.2477 2.464 48.1917 2.23067 48.0797 2.1C47.9864 1.96933 47.8091 1.89467 47.5477 1.876L46.9037 1.792C46.6984 1.75467 46.5957 1.64267 46.5957 1.456C46.5957 1.26933 46.6984 1.15733 46.9037 1.12C47.4264 1.008 47.8744 0.877332 48.2477 0.727999C48.6211 0.578665 48.9291 0.429332 49.1717 0.28C49.4704 0.0933332 49.6944 0 49.8437 0C50.0491 0 50.1517 0.149333 50.1517 0.447999V18.844C50.1517 19.236 50.2077 19.516 50.3197 19.684C50.4504 19.8333 50.7117 19.936 51.1037 19.992L51.7477 20.076C51.9531 20.1133 52.0557 20.2253 52.0557 20.412C52.0557 20.6173 51.9437 20.72 51.7197 20.72H46.7357Z" fill="#4A0325"/>
<path d="M34.4903 26.46C34.2103 26.46 34.0703 26.3573 34.0703 26.152C34.0703 25.9467 34.1916 25.8347 34.4343 25.816L34.8263 25.76C35.2183 25.704 35.4703 25.592 35.5823 25.424C35.713 25.256 35.7783 24.976 35.7783 24.584V9.436C35.7783 9.1 35.7223 8.876 35.6103 8.764C35.517 8.63333 35.3396 8.54933 35.0783 8.512L34.4903 8.428C34.2476 8.40933 34.1263 8.30667 34.1263 8.12C34.1263 7.97067 34.2756 7.868 34.5743 7.812C35.153 7.71867 35.5916 7.56933 35.8903 7.364C36.2076 7.15866 36.5343 6.90666 36.8703 6.608C37.0383 6.44 37.1783 6.356 37.2903 6.356C37.4583 6.356 37.5423 6.468 37.5423 6.692V7.56C37.5423 7.69067 37.5983 7.784 37.7103 7.84C37.8223 7.87733 37.953 7.82133 38.1023 7.672L38.4103 7.364C38.7836 6.99067 39.1663 6.72 39.5583 6.552C39.9503 6.36533 40.3983 6.272 40.9023 6.272C41.761 6.272 42.517 6.56133 43.1703 7.14C43.8423 7.7 44.365 8.484 44.7383 9.492C45.1303 10.5 45.3263 11.6853 45.3263 13.048C45.3263 14.5973 45.0836 15.9693 44.5983 17.164C44.113 18.3587 43.441 19.292 42.5823 19.964C41.7423 20.636 40.7716 20.972 39.6703 20.972C39.1103 20.972 38.6156 20.8693 38.1863 20.664C37.8503 20.5147 37.6823 20.6173 37.6823 20.972V24.584C37.6823 24.976 37.7383 25.2373 37.8503 25.368C37.981 25.5173 38.2423 25.62 38.6343 25.676L39.6703 25.816C39.8756 25.8533 39.9783 25.956 39.9783 26.124C39.9783 26.348 39.8383 26.46 39.5583 26.46H34.4903ZM39.7543 20.272C40.7996 20.272 41.6396 19.656 42.2743 18.424C42.9276 17.192 43.2543 15.5307 43.2543 13.44C43.2543 11.5173 42.9743 10.052 42.4143 9.044C41.8543 8.036 41.061 7.532 40.0343 7.532C39.3996 7.532 38.849 7.79333 38.3823 8.316C37.9156 8.83867 37.6823 9.56666 37.6823 10.5V17.556C37.6823 18.396 37.869 19.0587 38.2423 19.544C38.6343 20.0293 39.1383 20.272 39.7543 20.272Z" fill="#4A0325"/>
<path d="M29.1322 8.232C29.8976 6.92533 30.8216 6.272 31.9042 6.272C32.5202 6.272 32.9776 6.45867 33.2763 6.832C33.5749 7.18667 33.7243 7.588 33.7243 8.036C33.7243 8.39067 33.6309 8.68 33.4443 8.904C33.2763 9.128 33.0056 9.24 32.6322 9.24C32.3336 9.24 32.1096 9.17467 31.9602 9.044C31.8296 8.89467 31.7176 8.72667 31.6243 8.54C31.5496 8.35333 31.4562 8.19467 31.3442 8.064C31.2322 7.91467 31.0456 7.84 30.7843 7.84C30.4483 7.84 30.1309 8.04533 29.8323 8.456C29.5336 8.848 29.2816 9.38 29.0763 10.052C28.8896 10.724 28.7962 11.4893 28.7962 12.348V18.844C28.7962 19.236 28.8523 19.516 28.9643 19.684C29.0949 19.852 29.3562 19.9547 29.7482 19.992L30.5042 20.076C30.7096 20.1133 30.8123 20.216 30.8123 20.384C30.8123 20.608 30.6723 20.72 30.3923 20.72H25.6602C25.3802 20.72 25.2402 20.6173 25.2402 20.412C25.2402 20.244 25.3616 20.132 25.6042 20.076L25.9403 20.02C26.3323 19.9453 26.5842 19.8333 26.6962 19.684C26.8269 19.516 26.8923 19.236 26.8923 18.844V9.436C26.8923 9.1 26.8362 8.876 26.7242 8.764C26.6309 8.63333 26.4536 8.54933 26.1922 8.512L25.6042 8.428C25.3616 8.40933 25.2402 8.30667 25.2402 8.12C25.2402 7.97067 25.3896 7.868 25.6882 7.812C26.2669 7.71867 26.7056 7.56933 27.0042 7.364C27.3216 7.15866 27.6482 6.90666 27.9842 6.608C28.1522 6.44 28.2922 6.356 28.4042 6.356C28.5722 6.356 28.6562 6.468 28.6562 6.692V8.204C28.6562 8.33467 28.7122 8.41867 28.8242 8.456C28.9362 8.47467 29.0389 8.4 29.1322 8.232Z" fill="#4A0325"/>
<path d="M16.8934 20.972C16.4267 20.972 15.9787 20.8693 15.5494 20.664C15.1201 20.4587 14.7654 20.132 14.4854 19.684C14.2054 19.236 14.0654 18.6387 14.0654 17.892V8.148C14.0654 7.812 14.0094 7.57867 13.8974 7.448C13.8041 7.31733 13.6267 7.24267 13.3654 7.224L12.8894 7.168C12.5721 7.13066 12.4134 7.00933 12.4134 6.804C12.4134 6.56133 12.5907 6.44 12.9454 6.44H15.5494C15.8294 6.44 15.9694 6.58 15.9694 6.86V17.304C15.9694 18.1627 16.1281 18.7787 16.4454 19.152C16.7814 19.5067 17.2387 19.684 17.8174 19.684C18.3961 19.684 18.9094 19.5253 19.3574 19.208C19.8054 18.872 20.1601 18.4333 20.4214 17.892C20.7014 17.332 20.8414 16.7253 20.8414 16.072V8.148C20.8414 7.812 20.7854 7.57867 20.6734 7.448C20.5801 7.31733 20.4027 7.24267 20.1414 7.224L19.6654 7.168C19.3481 7.13066 19.1894 7.00933 19.1894 6.804C19.1894 6.56133 19.3667 6.44 19.7214 6.44H22.3254C22.6054 6.44 22.7454 6.58 22.7454 6.86V17.724C22.7454 18.06 22.7921 18.2933 22.8854 18.424C22.9974 18.536 23.1841 18.6107 23.4454 18.648L24.0334 18.732C24.2761 18.7507 24.3974 18.844 24.3974 19.012C24.3974 19.18 24.2481 19.292 23.9494 19.348C23.3707 19.4227 22.9041 19.572 22.5494 19.796C22.2134 20.02 21.9147 20.2907 21.6534 20.608C21.4854 20.776 21.3454 20.86 21.2334 20.86C21.0654 20.86 20.9814 20.748 20.9814 20.524V19.236C20.9814 19.0867 20.9254 19.0027 20.8134 18.984C20.7201 18.9467 20.6174 18.984 20.5054 19.096C19.8147 19.7867 19.1987 20.272 18.6574 20.552C18.1347 20.832 17.5467 20.972 16.8934 20.972Z" fill="#4A0325"/>
<path d="M0.42 26.46C0.14 26.46 0 26.3573 0 26.152C0 25.9467 0.121333 25.8347 0.364 25.816L0.756 25.76C1.148 25.704 1.4 25.592 1.512 25.424C1.64267 25.256 1.708 24.976 1.708 24.584V9.436C1.708 9.1 1.652 8.876 1.54 8.764C1.44667 8.63333 1.26933 8.54933 1.008 8.512L0.42 8.428C0.177333 8.40933 0.056 8.30667 0.056 8.12C0.056 7.97067 0.205333 7.868 0.504 7.812C1.08267 7.71867 1.52133 7.56933 1.82 7.364C2.13733 7.15866 2.464 6.90666 2.8 6.608C2.968 6.44 3.108 6.356 3.22 6.356C3.388 6.356 3.472 6.468 3.472 6.692V7.56C3.472 7.69067 3.528 7.784 3.64 7.84C3.752 7.87733 3.88267 7.82133 4.032 7.672L4.34 7.364C4.71333 6.99067 5.096 6.72 5.488 6.552C5.88 6.36533 6.328 6.272 6.832 6.272C7.69067 6.272 8.44667 6.56133 9.1 7.14C9.772 7.7 10.2947 8.484 10.668 9.492C11.06 10.5 11.256 11.6853 11.256 13.048C11.256 14.5973 11.0133 15.9693 10.528 17.164C10.0427 18.3587 9.37067 19.292 8.512 19.964C7.672 20.636 6.70133 20.972 5.6 20.972C5.04 20.972 4.54533 20.8693 4.116 20.664C3.78 20.5147 3.612 20.6173 3.612 20.972V24.584C3.612 24.976 3.668 25.2373 3.78 25.368C3.91067 25.5173 4.172 25.62 4.564 25.676L5.6 25.816C5.80533 25.8533 5.908 25.956 5.908 26.124C5.908 26.348 5.768 26.46 5.488 26.46H0.42ZM5.684 20.272C6.72933 20.272 7.56933 19.656 8.204 18.424C8.85733 17.192 9.184 15.5307 9.184 13.44C9.184 11.5173 8.904 10.052 8.344 9.044C7.784 8.036 6.99067 7.532 5.964 7.532C5.32933 7.532 4.77867 7.79333 4.312 8.316C3.84533 8.83867 3.612 9.56666 3.612 10.5V17.556C3.612 18.396 3.79867 19.0587 4.172 19.544C4.564 20.0293 5.068 20.272 5.684 20.272Z" fill="#4A0325"/>
</svg>
